<svg width="264" height="717" viewBox="0 0 264 717" fill="none" xmlns="http://www.w3.org/2000/svg">
<path fill-rule="evenodd" clip-rule="evenodd" d="M161.978 60.9504C162.373 59.5662 162.758 58.2074 162.952 56.778C163.529 52.5847 163.542 48.3015 163.806 44.0818C164.059 40.0177 164.577 36.0288 164.276 31.9468C164.118 29.7991 163.834 27.5307 162.969 25.5441C162.012 23.3545 160.217 21.9723 158.599 20.3196C156.586 18.2646 155.324 15.5851 153.322 13.5264C151.371 11.5209 148.762 10.3669 146.616 8.60912C143.253 5.85282 140.453 2.74194 135.853 2.9316C132.383 3.07798 129.027 4.25061 125.568 4.52559C122.202 4.79566 118.899 4.09632 115.588 3.60885C112.047 3.08738 109.064 3.12807 106.271 5.59596C103.56 7.9889 101.149 10.4008 98.1882 12.5047C96.079 13.9992 93.9279 15.4867 92.23 17.4777C90.5826 19.4069 89.3008 21.7842 88.9269 24.3404C88.5707 26.7851 89.216 29.2021 89.2817 31.641C89.3608 34.536 88.5667 37.3713 88.5357 40.2659C88.5155 42.0879 88.8519 43.8654 89.3297 45.6171C90.4206 49.6256 91.4575 53.4182 92.1046 57.5438C94.1738 70.7461 96.9578 79.3888 105.504 89.4873C111.181 96.1953 118.836 102.055 127.517 102.076C135.991 102.093 143.708 96.4059 148.523 89.2531C153.335 82.1023 159.598 69.2809 161.978 60.9504Z" fill="black"/>
<path d="M194.841 115.197L198.917 116.374C219.553 122.264 224.395 141.445 221.419 165.165C221.519 168.995 222.131 172.701 223.255 176.283C238.435 213.534 230.506 215.775 239.473 247.239C239.598 247.623 239.596 247.878 239.593 248.261C242.872 253.9 241.243 303.669 238.344 334.537C238.467 335.177 238.463 335.687 238.331 336.324C237.103 347.548 236.857 346.27 238.234 350.109C239.61 353.948 244.958 373.898 245.077 375.047C245.32 376.836 245.307 378.623 245.04 380.281C243.979 385.889 242.909 392.774 240.607 393.396C239.307 396.833 237.248 399.116 235.967 399.745C232.876 403.68 231.965 406.099 230.693 405.58C229.42 405.06 228.92 403.525 229.44 402.252C229.44 402.252 229.44 402.252 229.441 402.124C229.963 400.469 229.316 401.741 228.281 403.648C226.988 405.936 225.823 408.353 224.926 408.857C221.239 406.661 223.698 401.956 225.893 398.398C227.184 396.364 225.251 398.904 222.927 402.716C220.86 406.148 218.796 409.197 218.289 408.81C213.462 405.457 219.66 395.418 220.689 394.276C220.585 390.957 220.608 387.766 220.759 384.448C219.753 382.271 219.013 378.564 218.542 373.073C218.016 375.239 217.236 377.275 216.455 379.312C215.297 380.58 218.409 391.835 209.73 391.773C209.76 387.434 209.803 381.435 209.832 377.351C209.855 374.032 210.937 365.488 210.96 362.169C210.984 358.851 218.448 350.224 218.834 349.844C219.126 344.613 218.909 339.25 218.436 334.014C218.436 333.886 218.438 333.631 218.567 333.504C216.996 320.984 213.13 308.192 210.506 300.26C207.881 292.328 203.141 276.849 204.112 265.879C203.987 265.495 203.863 264.984 203.993 264.602C203.89 261.155 204.298 257.584 205.343 254.273C195.379 237.353 189.899 218.168 189.655 198.51C186.494 212.273 177.178 230.076 177.103 240.67C177.012 253.434 180.769 263.671 180.709 272.095C180.673 277.201 179.219 284.338 176.344 293.764C181.377 304.01 202.088 353.427 205.241 394.805C208.276 434.778 208.852 461.587 204.574 488.872C213.931 501.447 217.61 540.531 210.93 582.606C208.394 598.288 211.471 632.39 214.284 649.769C217.096 667.148 197.823 667.139 191.094 661.986C187.286 659.023 181.222 650.173 183.945 644.193C183.781 631.3 179.72 591.958 169.709 563.678C164.455 548.579 164.884 524.075 165.617 510.678C165.494 509.911 165.245 509.144 165.122 508.377C163.642 501.091 164.552 498.8 164.71 494.589C160.577 483.327 149.738 463.849 145.775 446.717C142.432 432.142 139.358 415.654 136.297 397.252L133.107 397.102C131.924 401.944 130.995 406.915 130.321 412.016C129.345 423.625 130.739 443.036 112.88 495.625C112.827 503.028 115.118 503.938 114.162 512.866C113.887 515.545 113.486 518.095 112.829 520.77C116.545 536.752 120.184 563.582 108.398 587.751C100.625 603.906 96.1243 626.594 98.7169 638.994C101.995 644.761 100.37 657.897 96.9003 661.191C90.6055 666.89 66.5087 663.018 69.5718 645.042C72.635 627.066 72.8276 599.88 67.8732 578.529C63.4122 559.606 65.1039 537.026 69.2324 512.803C69.2387 511.91 69.245 511.016 69.2523 509.995C69.2839 505.528 69.4405 501.444 69.7229 497.617C67.62 488.157 64.8681 480.224 62.1451 450.209C60.722 434.882 62.5993 422.131 62.3186 407.705C63.6715 360.87 72.3648 304.897 76.6554 293.823L76.9107 293.825C76.3096 288.587 75.9647 283.224 75.8741 277.99C75.9203 271.481 79.9764 257.469 81.345 244.459C82.4348 234.766 76.8921 224.388 73.2685 213.385C71.8945 227.161 65.0303 241.152 56.143 252.45C65.6689 295.149 49.071 313.795 44.2365 347.586C44.8702 348.228 45.3762 348.87 45.8822 349.512C51.3199 356.698 52.1464 366.15 48.6189 377.612C50.3786 381.454 51.6396 383.633 52.4 384.404C54.5571 386.206 56.3522 385.07 56.9496 390.819C55.0396 390.167 52.8753 389.386 50.9662 388.606C55.1573 391.572 56.4129 394.516 54.9899 397.187L49.3966 393.956C50.7915 395.242 51.6732 396.908 51.9158 398.697C51.7755 400.483 51.2532 402.138 50.3489 403.664L45.1692 396.096L38.3674 383.284L42.2436 394.671C44.8986 398.264 46.28 401.465 46.5171 404.019C46.7543 406.574 45.85 408.099 43.5508 408.338C38.9993 402.179 36.2185 398.33 35.2065 397.047C32.5596 392.305 30.2965 387.439 28.4182 382.32C27.5455 379.378 27.3409 372.228 27.8061 360.616C27.6947 358.318 27.7119 355.893 27.9835 353.597C30.1685 333.445 19.5348 302.991 22.8214 271.487C23.3753 265.364 24.8227 259.248 27.0332 253.52C27.5808 248.29 30.6929 241.42 30.4693 236.951C28.5001 190.603 39.4153 199.36 38.9335 177.274C38.4518 155.189 37.1518 140.501 45.6517 129.839C52.2208 121.462 67.0608 116.716 76.1274 116.142C77.9242 114.751 79.9745 113.617 82.0239 112.61C88.0427 109.845 94.3149 107.336 100.585 105.083C108.186 95.1812 106.799 92.7461 106.923 75.2602C107.049 57.5189 151.665 65.7488 151.612 73.2792C151.562 80.2992 148.003 96.2291 156.885 103.695" fill="url(#paint0_linear_187_404)"/>
<path d="M226.901 382.322L228.227 393.308" stroke="#F29353" stroke-width="1.14" stroke-linecap="round"/>
<path d="M233.282 382.367L233.7 395.517L231.892 398.44" stroke="#F29353" stroke-width="1.14" stroke-linecap="round"/>
<path d="M240.712 378.591L240.367 391.352L237.902 396.951" stroke="#F29353" stroke-width="1.14" stroke-linecap="round"/>
<path d="M219.921 376.529L218.559 370.648L217.121 375.488" stroke="#F29353" stroke-width="1.14" stroke-linecap="round"/>
<path d="M220.14 345.641L218.701 350.609" stroke="#F29353" stroke-width="1.14" stroke-linecap="round"/>
<path d="M191.945 181.55C191.407 185.503 192.774 190.746 196.303 197.025" stroke="#EE8B48" stroke-width="1.14" stroke-linecap="round"/>
<path d="M212.453 241.559C209.875 245.115 207.933 249.058 206.754 253.261" stroke="#F29353" stroke-width="1.14" stroke-linecap="round"/>
<path d="M78.8703 503.681C77.03 511.199 77.881 517.204 81.2946 521.823C84.7081 526.443 86.4381 534.496 86.229 545.983" stroke="#F08944" stroke-width="1.14" stroke-linecap="round"/>
<path d="M105.041 503.101C107.02 511.922 106.465 518.3 103.248 521.979" stroke="#F08944" stroke-width="1.14" stroke-linecap="round"/>
<path d="M79.4022 194.41C72.9208 190.407 70.0585 180.048 68.0172 179.906C65.9759 179.764 63.1237 185.998 59.0104 190.053" stroke="#EE8B48" stroke-width="1.14" stroke-linecap="round"/>
<path d="M70.0133 186.43C70.0921 193.323 68.6402 200.077 65.9156 206.313" stroke="#EE8B48" stroke-width="1.14" stroke-linecap="round"/>
<path d="M71.4302 184.653C76.3329 195.282 85.118 198.407 100.307 198.515C115.495 198.622 126.994 197.045 127.972 185.053" stroke="#EE8B48" stroke-width="1.14" stroke-linecap="round"/>
<path d="M180.234 195.124C186.771 191.214 189.78 180.896 191.823 180.783C193.866 180.67 196.63 186.944 200.685 191.057" stroke="#EE8B48" stroke-width="1.14" stroke-linecap="round"/>
<path d="M188.344 185.481C183.291 196.039 174.462 199.04 159.274 198.932C144.085 198.825 132.61 197.084 131.801 185.08" stroke="#EE8B48" stroke-width="1.14" stroke-linecap="round"/>
<path d="M153.457 101.118C153.942 104.695 154.811 108.148 156.063 111.603" stroke="#F89451" stroke-width="1.14" stroke-linecap="round"/>
<path d="M104.053 102.172C103.904 105.107 103.373 108.039 102.587 110.841" stroke="#F89451" stroke-width="1.14" stroke-linecap="round"/>
<path d="M169.895 501.39C169.586 509.047 171.204 514.802 174.879 518.53C178.555 522.257 181.182 529.679 183.017 540.924" stroke="#F08944" stroke-width="1.14" stroke-linecap="round"/>
<path d="M195.924 502.851C197.008 511.921 195.816 518.04 192.218 521.461" stroke="#F08944" stroke-width="1.14" stroke-linecap="round"/>
<path fill-rule="evenodd" clip-rule="evenodd" d="M54.2524 699.437C55.7361 706.212 61.4471 710.848 70.1127 712.824C78.7783 714.8 94.3543 714.272 99.2271 711.116C104.1 707.959 113.625 696.667 100.351 678.575C104.131 667.497 110.061 659.242 100.07 646.152C95.5352 655.693 81.5288 650.871 71.2193 646.714C68.8006 645.803 63.5496 666.316 61.8207 676.132C55.8564 689.237 52.1549 689.211 54.2524 699.437Z" fill="#C6C6C6"/>
<path fill-rule="evenodd" clip-rule="evenodd" d="M76.8533 644.201C80.8271 641.804 85.9307 642.095 89.6114 645.057C90.627 645.83 92.2646 648.905 94.8227 648.157C98.7875 647.037 98.4335 642.95 99.8475 641.556C101.261 640.162 105.143 650.783 101.499 660.713C97.8544 670.644 105.277 685.886 105.277 685.886C105.277 685.886 108.846 704.674 95.5672 705.218C91.7363 705.446 91.882 702.895 80.9009 703.455C74.2612 703.791 75.6371 707.758 65.7069 704.113C55.7767 700.469 53.2828 692.155 55.2271 687.956C57.301 683.503 61.1843 675.872 63.4092 668.102C63.7549 655.34 66.1139 646.677 70.2307 642.112C70.3403 644.665 72.1163 646.209 73.0098 646.216C75.8168 646.363 75.8268 644.959 76.8533 644.201Z" fill="black"/>
<path fill-rule="evenodd" clip-rule="evenodd" d="M71.9127 656.93L87.8264 662.786L75.0077 670.482L88.6231 676.45L73.2996 677.362L88.1605 669.681L74.6737 663.587L89.7907 655.78L71.9127 656.93Z" stroke="white" stroke-width="1.07" stroke-linecap="round" stroke-linejoin="round"/>
<path fill-rule="evenodd" clip-rule="evenodd" d="M230.134 700.683C228.808 707.566 223.159 712.248 214.592 714.358C206.025 716.467 190.326 716.356 185.37 713.257C180.413 710.286 170.664 699.112 183.685 680.824C179.679 669.819 173.609 661.734 183.277 648.4C188.06 657.88 201.882 652.744 212.124 648.35C214.556 647.346 220.155 667.808 222.129 677.523C228.418 690.587 232.12 690.485 230.134 700.683Z" fill="#C6C6C6"/>
<path fill-rule="evenodd" clip-rule="evenodd" d="M206.525 645.885C202.457 643.558 197.348 644.033 193.753 647.071C192.725 647.957 191.173 650.882 188.625 650.225C184.675 649.176 186.11 644.847 184.715 643.56C183.32 642.274 178.393 653.089 182.153 662.944C186.04 672.8 178.91 688.194 178.91 688.194C178.91 688.194 175.713 707.062 189.114 707.284C192.943 707.312 192.833 704.886 203.68 705.218C210.316 705.392 209.011 709.468 218.994 705.582C228.978 701.695 231.08 693.286 229.066 689.187C226.928 684.705 222.897 677.145 220.399 669.469C219.723 656.7 217.232 648.003 213.051 643.633C212.905 646.185 211.234 647.833 210.468 647.827C207.659 648.063 207.541 646.658 206.525 645.885Z" fill="black"/>
<path fill-rule="evenodd" clip-rule="evenodd" d="M211.669 658.558L195.925 664.701L208.764 672.195L195.317 678.482L210.757 679.102L195.621 671.591L209.068 665.304L193.804 657.793L211.669 658.558Z" stroke="white" stroke-width="1.07" stroke-linecap="round" stroke-linejoin="round"/>
<g opacity="0.42" filter="url(#filter0_f_187_404)">
<path fill-rule="evenodd" clip-rule="evenodd" d="M108.932 79.9971C109.261 87.6579 110.781 107.325 118.79 111.85C126.799 116.374 136.245 116.313 141.126 112.008C146.007 107.703 150.834 92.9305 151.066 78.2534C152.413 68.3069 105.682 70.2733 108.932 79.9971Z" fill="#915D2E" fill-opacity="0.7"/>
</g>
<path fill-rule="evenodd" clip-rule="evenodd" d="M104.447 82.5181C104.897 91.0732 115.027 102.505 119.215 105.981C123.402 109.457 134.37 110.811 139.253 106.123C144.137 101.435 148.515 95.9774 149.559 92.7937C150.603 89.6101 153.843 82.6128 154.368 80.5742C157.643 86.8519 170.224 58.6046 159.233 60.569C159.286 53.0385 160.182 34.6645 150.029 26.4235C139.876 18.1826 126.612 16.6845 112.654 23.0953C98.6957 29.5061 96.0453 43.2726 99.106 61.6747C101.654 62.3309 89.5478 59.5647 94.1817 72.1064C97.3265 78.6384 97.2849 84.5096 104.447 82.5181Z" fill="#FFD4AB"/>
<path d="M127.771 105.404L130.706 105.424" stroke="#EA833E" stroke-width="1.14" stroke-linecap="round"/>
<path d="M160.733 65.0471C156.243 68.2063 153.928 70.6151 153.916 72.402" stroke="#EA833E" stroke-width="1.14" stroke-linecap="round"/>
<path d="M157.384 69.3632L157.362 72.4264L153.881 77.2521" stroke="#EA833E" stroke-width="1.14" stroke-linecap="round"/>
<path d="M95.88 66.6299C98.4273 67.4138 100.455 69.4704 101.203 72.0285" stroke="#EA833E" stroke-width="1.14" stroke-linecap="round"/>
<path d="M98.4164 68.9454L99.0193 73.9277L102.189 76.8859" stroke="#EA833E" stroke-width="1.14" stroke-linecap="round"/>
<path opacity="0.75" fill-rule="evenodd" clip-rule="evenodd" d="M176.143 294.105C158.509 305.681 84.5517 303.72 76.226 293.984C70.8801 272.725 79.4621 259.933 80.293 242.4C80.685 234.128 75.1998 226.693 73.5076 214.353C71.977 207.666 71.2281 202.001 71.261 197.36C79.5823 188.556 83.8086 174.875 83.9401 156.317C84.1302 129.487 79.0742 122.906 76.0702 115.848C75.3678 114.563 79.0019 112.448 83.0199 110.861C87.6538 109.032 92.5796 106.392 93.2359 107.435C93.2188 109.847 102.645 144.659 128.547 144.842C154.449 145.026 162.565 139.144 169.74 107.735C169.45 106.83 172.877 107.613 178.611 109.189C184.345 110.764 188.722 112.258 187.574 112.971C185.787 113.7 185.074 118.932 180.582 152.104C176.089 185.276 185.322 185.536 190.47 191.636C190.582 196.625 189.818 202.41 188.177 208.991C179.786 227.971 176.842 243.191 179.345 254.652C183.099 271.843 183.575 287.067 176.143 294.105Z" fill="#FFFAF9"/>
<path opacity="0.85" fill-rule="evenodd" clip-rule="evenodd" d="M131.541 415.867L132.789 403.747L136.008 403.721L137.18 415.907C162.769 416.18 180.79 414.823 191.242 411.834C199.504 409.471 204.744 403.1 206.964 392.722C201.498 361.813 196.376 339.516 191.597 325.83C186.93 312.464 179.535 293.786 176.344 293.764C128.868 306.679 84.8324 298.479 76.6554 293.823C74.0506 293.626 72.8795 302.554 71.1044 310.314C68.35 322.355 62.3145 374.792 61.337 395.895C61.2281 411.266 84.6293 417.923 131.541 415.867Z" fill="black"/>
<g filter="url(#filter1_d_187_404)">
<path d="M217.066 128.915C242.816 132.668 259 138.101 259 144.144C259 155.471 202.14 164.653 132 164.653C61.8598 164.653 5 155.471 5 144.144C5 138.339 19.9351 133.097 43.9387 129.365" stroke="#E95D5C" stroke-width="2" stroke-linecap="round"/>
</g>
<g filter="url(#filter2_d_187_404)">
<path d="M179.672 232.302C194.682 236.055 204.115 241.488 204.115 247.531C204.115 258.858 170.971 268.04 130.085 268.04C89.1996 268.04 56.0552 258.858 56.0552 247.531C56.0552 241.725 64.7611 236.484 78.7531 232.752" stroke="#E95D5C" stroke-width="2" stroke-linecap="round"/>
</g>
<g filter="url(#filter3_d_187_404)">
<path d="M196.969 340.794C216.249 344.547 228.367 349.98 228.367 356.023C228.367 367.35 185.793 376.533 133.276 376.533C80.7595 376.533 38.186 367.35 38.186 356.023C38.186 350.218 49.3686 344.976 67.3411 341.245" stroke="#E95D5C" stroke-width="2" stroke-linecap="round"/>
</g>
<path d="M156.889 60.6281C157.273 57.1544 158.165 54.7701 156.251 47.2261C153.884 40.8837 148.664 36.4856 149.093 28.828C145.026 25.6435 136.253 31.7052 127.472 32.9386C118.691 34.1721 101.366 29.471 102.642 43.5112C104.557 53.9848 101.79 54.6909 102.642 63.1808L99.4516 61.9045C96.8989 58.7135 91.8897 42.7687 95.0525 25.6154C98.2153 8.46197 134.974 -8.40549 152.04 21.5753C168.895 16.6026 160.475 56.7816 160.08 60.6281H156.889Z" fill="black"/>
<defs>
<filter id="filter0_f_187_404" x="104.77" y="67.6837" width="50.3246" height="51.5562" filterUnits="userSpaceOnUse" color-interpolation-filters="sRGB">
<feFlood flood-opacity="0" result="BackgroundImageFix"/>
<feBlend mode="normal" in="SourceGraphic" in2="BackgroundImageFix" result="shape"/>
<feGaussianBlur stdDeviation="2" result="effect1_foregroundBlur_187_404"/>
</filter>
<filter id="filter1_d_187_404" x="0" y="127.914" width="264" height="45.7388" filterUnits="userSpaceOnUse" color-interpolation-filters="sRGB">
<feFlood flood-opacity="0" result="BackgroundImageFix"/>
<feColorMatrix in="SourceAlpha" type="matrix" values="0 0 0 0 0 0 0 0 0 0 0 0 0 0 0 0 0 0 127 0" result="hardAlpha"/>
<feOffset dy="4"/>
<feGaussianBlur stdDeviation="2"/>
<feComposite in2="hardAlpha" operator="out"/>
<feColorMatrix type="matrix" values="0 0 0 0 0.913725 0 0 0 0 0.364706 0 0 0 0 0.360784 0 0 0 0.37 0"/>
<feBlend mode="normal" in2="BackgroundImageFix" result="effect1_dropShadow_187_404"/>
<feBlend mode="normal" in="SourceGraphic" in2="effect1_dropShadow_187_404" result="shape"/>
</filter>
<filter id="filter2_d_187_404" x="51.0552" y="231.301" width="158.06" height="45.7389" filterUnits="userSpaceOnUse" color-interpolation-filters="sRGB">
<feFlood flood-opacity="0" result="BackgroundImageFix"/>
<feColorMatrix in="SourceAlpha" type="matrix" values="0 0 0 0 0 0 0 0 0 0 0 0 0 0 0 0 0 0 127 0" result="hardAlpha"/>
<feOffset dy="4"/>
<feGaussianBlur stdDeviation="2"/>
<feComposite in2="hardAlpha" operator="out"/>
<feColorMatrix type="matrix" values="0 0 0 0 0.913725 0 0 0 0 0.364706 0 0 0 0 0.360784 0 0 0 0.37 0"/>
<feBlend mode="normal" in2="BackgroundImageFix" result="effect1_dropShadow_187_404"/>
<feBlend mode="normal" in="SourceGraphic" in2="effect1_dropShadow_187_404" result="shape"/>
</filter>
<filter id="filter3_d_187_404" x="33.186" y="339.794" width="200.181" height="45.7389" filterUnits="userSpaceOnUse" color-interpolation-filters="sRGB">
<feFlood flood-opacity="0" result="BackgroundImageFix"/>
<feColorMatrix in="SourceAlpha" type="matrix" values="0 0 0 0 0 0 0 0 0 0 0 0 0 0 0 0 0 0 127 0" result="hardAlpha"/>
<feOffset dy="4"/>
<feGaussianBlur stdDeviation="2"/>
<feComposite in2="hardAlpha" operator="out"/>
<feColorMatrix type="matrix" values="0 0 0 0 0.913725 0 0 0 0 0.364706 0 0 0 0 0.360784 0 0 0 0.37 0"/>
<feBlend mode="normal" in2="BackgroundImageFix" result="effect1_dropShadow_187_404"/>
<feBlend mode="normal" in="SourceGraphic" in2="effect1_dropShadow_187_404" result="shape"/>
</filter>
<linearGradient id="paint0_linear_187_404" x1="134.288" y1="-25.8492" x2="161.742" y2="824.993" gradientUnits="userSpaceOnUse">
<stop stop-color="#FFD6A7"/>
<stop offset="0.49" stop-color="#FFCFB0"/>
<stop offset="1" stop-color="#FFB783"/>
</linearGradient>
</defs>
</svg>
